<svg xmlns="http://www.w3.org/2000/svg" viewBox="0 0 379 96" width="758" height="192" role="img" aria-label="rxf-sys IT-Service Dormagen"><g transform="scale(1.5)"><rect fill="#1C2125" width="64" height="64" rx="15"/><path fill="#F4F5F2" transform="translate(5.06 38.12) scale(0.0232)" d="M60 0V-528H242L257 -442H266Q285 -477 312 -499Q339 -521 370 -531Q401 -541 432 -541Q454 -541 472 -538Q491 -535 509 -528V-362H406Q375 -362 352 -352Q329 -343 314 -326Q299 -310 292 -288Q284 -265 284 -238V0ZM519 0 780 -280 544 -528H828L941 -396H946L1059 -528H1326L1086 -275L1341 0H1059L926 -158H921L787 0ZM1469 0V-387H1354V-528H1469V-542Q1469 -613 1498 -656Q1528 -698 1580 -718Q1632 -737 1697 -737Q1720 -737 1749 -734Q1778 -732 1806 -728Q1835 -724 1857 -719V-596H1793Q1735 -596 1714 -584Q1693 -573 1693 -543V-528H1857V-387H1693V0Z"/><rect fill="#FFC21A" x="50.55" y="25.88" width="7.00" height="12.25" rx="0.8"/></g><g transform="translate(120 10) scale(0.05625) translate(-51 747)"><path fill="#1C2125" d="M64 0V-527H206L218 -442H226Q239 -472 260 -494Q281 -516 310 -528Q338 -540 371 -540Q390 -540 407 -537Q423 -534 435 -529V-384H365Q332 -384 308 -374Q284 -365 268 -346Q253 -328 245 -303Q238 -278 238 -248V0ZM450 0 676 -277 469 -527H684L796 -378H802L914 -527H1116L906 -274L1129 0H916L787 -172H782L653 0ZM1235 0V-405H1142V-527H1235V-563Q1235 -621 1257 -660Q1278 -698 1320 -716Q1361 -735 1419 -735Q1437 -735 1459 -733Q1481 -731 1502 -727Q1523 -723 1538 -718V-613H1481Q1441 -613 1425 -601Q1409 -589 1409 -561V-527H1538V-405H1409V0ZM1593 -201V-346H1878V-201ZM2244 12Q2188 12 2137 2Q2086 -8 2046 -29Q2006 -49 1983 -80Q1960 -111 1960 -153Q1960 -157 1960 -161Q1960 -164 1961 -168H2133Q2133 -165 2133 -163Q2133 -160 2133 -158Q2133 -137 2149 -123Q2165 -110 2190 -104Q2216 -97 2245 -97Q2269 -97 2296 -101Q2322 -104 2340 -114Q2359 -124 2359 -145Q2359 -167 2335 -177Q2312 -187 2273 -193Q2234 -199 2186 -207Q2146 -214 2108 -224Q2071 -235 2040 -252Q2010 -270 1992 -298Q1974 -327 1974 -369Q1974 -416 1996 -449Q2017 -481 2055 -501Q2093 -521 2143 -530Q2194 -539 2251 -539Q2303 -539 2350 -530Q2397 -521 2434 -503Q2472 -485 2493 -456Q2515 -428 2515 -389Q2515 -385 2515 -380Q2515 -375 2514 -373H2343V-380Q2343 -397 2329 -408Q2316 -419 2295 -424Q2274 -430 2248 -430Q2236 -430 2218 -428Q2201 -427 2184 -423Q2168 -419 2157 -411Q2146 -403 2146 -389Q2146 -372 2165 -363Q2184 -354 2215 -349Q2246 -344 2283 -338Q2326 -331 2370 -322Q2413 -314 2450 -297Q2486 -280 2509 -250Q2531 -219 2531 -168Q2531 -117 2509 -82Q2487 -47 2448 -27Q2409 -6 2357 3Q2304 12 2244 12ZM2719 201Q2684 201 2657 196Q2630 190 2613 184V78H2689Q2724 78 2746 67Q2768 56 2781 38Q2794 21 2802 0L2570 -527H2759L2848 -290Q2855 -274 2863 -249Q2871 -224 2880 -199Q2889 -173 2895 -154H2902Q2905 -165 2911 -182Q2916 -199 2922 -219Q2929 -239 2935 -258Q2942 -277 2946 -291L3027 -527H3205L3002 -34Q2981 16 2957 59Q2934 102 2902 134Q2870 166 2826 183Q2781 201 2719 201ZM3529 12Q3473 12 3422 2Q3371 -8 3331 -29Q3291 -49 3268 -80Q3245 -111 3245 -153Q3245 -157 3245 -161Q3245 -164 3246 -168H3418Q3418 -165 3418 -163Q3418 -160 3418 -158Q3418 -137 3434 -123Q3450 -110 3475 -104Q3501 -97 3530 -97Q3554 -97 3581 -101Q3607 -104 3625 -114Q3644 -124 3644 -145Q3644 -167 3620 -177Q3597 -187 3558 -193Q3518 -199 3471 -207Q3431 -214 3393 -224Q3356 -235 3325 -252Q3295 -270 3277 -298Q3259 -327 3259 -369Q3259 -416 3281 -449Q3302 -481 3340 -501Q3378 -521 3428 -530Q3479 -539 3536 -539Q3588 -539 3635 -530Q3682 -521 3719 -503Q3757 -485 3778 -456Q3800 -428 3800 -389Q3800 -385 3800 -380Q3800 -375 3799 -373H3628V-380Q3628 -397 3614 -408Q3601 -419 3580 -424Q3559 -430 3533 -430Q3521 -430 3503 -428Q3486 -427 3469 -423Q3453 -419 3442 -411Q3431 -403 3431 -389Q3431 -372 3450 -363Q3469 -354 3500 -349Q3531 -344 3568 -338Q3611 -331 3655 -322Q3698 -314 3735 -297Q3771 -280 3794 -250Q3816 -219 3816 -168Q3816 -117 3794 -82Q3772 -47 3733 -27Q3694 -6 3642 3Q3589 12 3529 12Z"/><rect fill="#FFC21A" x="3923.00" y="-528.00" width="250.00" height="528.00" rx="28"/></g><path fill="#535B62" transform="translate(122 84) scale(0.015)" d="M116 0V-106H243V-562H116V-668H516V-562H389V-106H516V0ZM1055 0V-540H864V-668H1392V-540H1201V0ZM1780 -188V-309H2100V-188ZM2755 12Q2691 12 2636 -8Q2582 -27 2542 -64Q2502 -102 2482 -155L2615 -203Q2624 -173 2645 -150Q2666 -128 2696 -116Q2725 -105 2758 -105Q2787 -105 2814 -114Q2840 -123 2858 -142Q2875 -162 2875 -190Q2875 -225 2847 -244Q2819 -264 2756 -277L2694 -290Q2636 -302 2592 -326Q2547 -349 2522 -388Q2498 -426 2498 -481Q2498 -541 2534 -586Q2571 -631 2630 -656Q2689 -680 2760 -680Q2809 -680 2856 -666Q2904 -651 2943 -620Q2982 -589 3003 -539L2871 -490Q2861 -514 2842 -530Q2824 -546 2800 -554Q2777 -563 2750 -563Q2720 -563 2696 -554Q2672 -545 2658 -528Q2644 -512 2644 -487Q2644 -460 2666 -442Q2687 -424 2725 -416L2797 -400Q2863 -387 2913 -364Q2963 -341 2992 -304Q3020 -267 3020 -207Q3020 -140 2984 -91Q2947 -42 2886 -15Q2826 12 2755 12ZM3347 0V-668H3803V-540H3492V-407H3688V-280H3492V-128H3807V0ZM4126 0V-668H4379Q4447 -668 4503 -646Q4559 -625 4592 -580Q4626 -535 4626 -462Q4626 -380 4583 -334Q4540 -288 4473 -271L4653 0H4496L4333 -255H4259V0ZM4259 -370H4377Q4409 -370 4434 -380Q4459 -389 4473 -409Q4487 -429 4487 -462Q4487 -495 4473 -514Q4459 -534 4434 -544Q4409 -553 4377 -553H4259ZM5111 0 4907 -668H5049L5190 -150H5194L5335 -668H5469L5265 0ZM5800 0V-106H5927V-562H5800V-668H6200V-562H6073V-106H6200V0ZM6834 12Q6746 12 6682 -30Q6618 -73 6583 -150Q6548 -228 6548 -334Q6548 -439 6584 -516Q6620 -594 6684 -637Q6749 -680 6836 -680Q6917 -680 6978 -638Q7040 -596 7072 -522L6958 -480Q6940 -523 6910 -544Q6879 -564 6839 -564Q6797 -564 6764 -536Q6730 -509 6710 -458Q6690 -407 6690 -334Q6690 -259 6710 -208Q6730 -157 6765 -130Q6800 -104 6843 -104Q6865 -104 6888 -112Q6911 -120 6931 -138Q6951 -157 6964 -187L7075 -146Q7041 -72 6979 -30Q6917 12 6834 12ZM7407 0V-668H7863V-540H7552V-407H7748V-280H7552V-128H7867V0ZM9248 -159Q9221 -159 9198 -172Q9174 -186 9160 -210Q9147 -233 9147 -260Q9147 -289 9160 -312Q9174 -334 9198 -348Q9221 -362 9248 -362Q9276 -362 9299 -348Q9322 -334 9336 -312Q9349 -289 9349 -260Q9349 -233 9336 -210Q9322 -186 9299 -172Q9276 -159 9248 -159ZM10621 0V-668H10810Q10883 -668 10945 -652Q11007 -635 11054 -596Q11100 -557 11126 -493Q11152 -429 11152 -334Q11152 -240 11126 -176Q11100 -111 11054 -72Q11007 -34 10945 -17Q10883 0 10810 0ZM10755 -118H10805Q10846 -118 10884 -126Q10921 -134 10950 -156Q10980 -179 10997 -222Q11014 -265 11014 -334Q11014 -404 10997 -448Q10980 -491 10950 -513Q10921 -535 10884 -543Q10846 -551 10805 -551H10755ZM11684 12Q11597 12 11534 -30Q11472 -73 11438 -151Q11405 -229 11405 -334Q11405 -439 11438 -517Q11472 -595 11534 -638Q11597 -680 11684 -680Q11771 -680 11834 -638Q11896 -595 11930 -517Q11963 -439 11963 -334Q11963 -229 11930 -151Q11896 -73 11834 -30Q11771 12 11684 12ZM11684 -104Q11726 -104 11756 -130Q11787 -156 11804 -207Q11821 -258 11821 -334Q11821 -410 11804 -461Q11787 -512 11756 -538Q11726 -564 11684 -564Q11643 -564 11612 -538Q11581 -512 11564 -461Q11547 -410 11547 -334Q11547 -258 11564 -207Q11581 -156 11612 -130Q11643 -104 11684 -104ZM12246 0V-668H12499Q12567 -668 12623 -646Q12679 -625 12712 -580Q12746 -535 12746 -462Q12746 -380 12703 -334Q12660 -288 12593 -271L12773 0H12616L12453 -255H12379V0ZM12379 -370H12497Q12529 -370 12554 -380Q12579 -389 12593 -409Q12607 -429 12607 -462Q12607 -495 12593 -514Q12579 -534 12554 -544Q12529 -553 12497 -553H12379ZM13030 0V-668H13210L13309 -182H13313L13412 -668H13586V0H13476V-525H13472L13362 0H13252L13142 -525H13138V0ZM13836 0 14043 -668H14197L14404 0H14269L14232 -126H14002L13965 0ZM14033 -243H14200L14119 -520H14115ZM14922 12Q14839 12 14779 -31Q14719 -74 14686 -152Q14653 -230 14653 -336Q14653 -441 14689 -518Q14725 -595 14790 -638Q14855 -680 14940 -680Q15016 -680 15080 -642Q15145 -604 15174 -528L15060 -486Q15047 -519 15018 -542Q14990 -564 14943 -564Q14900 -564 14866 -539Q14831 -514 14811 -464Q14791 -413 14791 -336Q14791 -259 14810 -208Q14830 -156 14866 -130Q14902 -104 14949 -104Q14971 -104 14994 -111Q15016 -118 15034 -133Q15052 -148 15063 -174Q15074 -201 15074 -240V-262H14939V-372H15196V0H15114L15094 -77Q15077 -47 15050 -28Q15022 -8 14990 2Q14957 12 14922 12ZM15527 0V-668H15983V-540H15672V-407H15868V-280H15672V-128H15987V0ZM16298 0V-668H16462L16686 -182H16690V-668H16814V0H16650L16426 -486H16422V0Z"/></svg>
